# xmcd
#
# Track frame offsets: 
#        150
#        12007
#        22370
#        33051
#        44310
#        54783
#        65880
#        76496
#        87692
#        99263
#        109710
#        123616
#        135865
#        147645
#        159456
#        167230
#        178544
#        190453
#        204016
#        217653
#        229399
#        238009
#        252380
#        263887
#        274735
#        285107
#        296503
#        307669
#
# Disc length: 4266 seconds
#
# Revision: 2
# Processed by: cddbd v1.5.2PL0 Copyright (c) Steve Scherf et al.
# Submitted via: ExactAudioCopyFreeDBPlugin 1.0
#
DISCID=8710a81c
DTITLE=Various Artist - By the Bayou [Ace Records]
DYEAR=2016
DGENRE=Rhythm and Blues
TTITLE0=Chris Kenner - Grandma's House
TTITLE1=Lester Robertson - Oh Babe
TTITLE2=Guitar Jr. - Roll Roll Roll
TTITLE3=Wonderboy Travis - She Was Gone
TTITLE4=Barbara Lynn - One Night of Sin
TTITLE5=Jay Nelson - Betty Ann
TTITLE6=Little Victor - Please Be There
TTITLE7=Smilin' Joe - Love Sick Soul
TTITLE8=Charles Sheffield and Big Sambo - Shoo, Shoo Chicken
TTITLE9=Leroy Washington - Wild Cherry
TTITLE10=Classie Ballou - Crowley Stroll
TTITLE11=Classie Ballou - D-I-R-T-Y D-E-A-L
TTITLE12=Jay Nelson - A Fool That Was Blind
TTITLE13=Smilin' Joe - Living on Borrowed Time
TTITLE14=Ivory Jackson - Clautelia
TTITLE15=Lester Robertson - My Girl Across Town
TTITLE16=Tabby Thomas - C.C. Rider
TTITLE17=Big Walter Price - Better Run
TTITLE18=Baton Rouge Boys - Rising Sun
TTITLE19=Lester Robertson - Please Don't Go
TTITLE20=Barbara Lynn - Love You Most of All
TTITLE21=Classie Ballou - Hey Ma Ma (Version 2)
TTITLE22=John Reed - Little Girl You Look So Good
TTITLE23=Honey Boy Alan - Ford V-8
TTITLE24=Mr. Mojo and His Orch - I Won't Be Long Here
TTITLE25=Little Victor - What is Love
TTITLE26=Joe August - Strange Things Happening in the Dark
TTITLE27=Classie Ballou - Loving Huggin Kissin My Baby
EXTD=
EXTT0=
EXTT1=
EXTT2=
EXTT3=
EXTT4=
EXTT5=
EXTT6=
EXTT7=
EXTT8=
EXTT9=
EXTT10=
EXTT11=
EXTT12=
EXTT13=
EXTT14=
EXTT15=
EXTT16=
EXTT17=
EXTT18=
EXTT19=
EXTT20=
EXTT21=
EXTT22=
EXTT23=
EXTT24=
EXTT25=
EXTT26=
EXTT27=
PLAYORDER=
